<?xml version="1.0" encoding="UTF-8"?>
<svg id="Capa_1" data-name="Capa 1" xmlns="http://www.w3.org/2000/svg" viewBox="0 0 251.65 264">
  <defs>
    <style>
      .cls-1 {
        fill: aqua;
        stroke: #0071bc;
      }

      .cls-1, .cls-2, .cls-3 {
        stroke-miterlimit: 10;
      }

      .cls-2 {
        fill: none;
      }

      .cls-2, .cls-3 {
        stroke: #000;
      }

      .cls-4 {
        stroke-width: 0px;
      }

      .cls-3 {
        stroke-width: 3px;
      }
    </style>
  </defs>
  <polyline class="cls-1" points="132.35 41.37 14.15 41 14.15 87 132.65 87 132.65 41"/>
  <polyline class="cls-2" points="14.15 0 14.15 86.98 132.85 86.98 132.85 0"/>
  <line class="cls-2" x1="26.65" y1="61" x2="13.87" y2="61.17"/>
  <line class="cls-2" x1="19.65" y1="74.07" x2="14.41" y2="74.07"/>
  <line class="cls-2" x1="20.15" y1="48.62" x2="14.14" y2="48.62"/>
  <line class="cls-2" x1="27.26" y1="35.21" x2="14.48" y2="35.38"/>
  <g>
    <path class="cls-4" d="m51.86,67.7v-7.36h-2.88v-1.04h6.95v1.04h-2.88v7.36h-1.19Z"/>
    <path class="cls-4" d="m58.93,67.77c-.47,0-.89-.08-1.24-.24s-.63-.38-.82-.67c-.19-.28-.29-.61-.29-.97s.08-.66.25-.94c.16-.28.43-.5.8-.67s.87-.25,1.51-.25h2.02v.83h-1.97c-.58,0-.96.1-1.16.29-.2.19-.3.42-.3.7,0,.31.12.56.37.75.25.19.59.28,1.03.28s.81-.1,1.13-.29c.32-.19.56-.47.7-.84l.23.79c-.15.38-.42.67-.8.89-.38.22-.87.33-1.45.33Zm2.09-.07v-1.34l-.06-.25v-2.29c0-.49-.14-.87-.43-1.13-.28-.27-.71-.4-1.28-.4-.38,0-.74.06-1.1.19-.36.12-.66.29-.91.5l-.48-.86c.33-.26.72-.47,1.18-.61s.94-.21,1.45-.21c.87,0,1.54.21,2.02.64.47.42.71,1.07.71,1.94v3.84h-1.09Z"/>
    <path class="cls-4" d="m67.64,61.28c.52,0,.98.1,1.37.3.4.2.71.5.93.91s.34.92.34,1.55v3.66h-1.15v-3.53c0-.62-.15-1.08-.45-1.39-.3-.31-.72-.47-1.27-.47-.41,0-.76.08-1.07.24s-.54.4-.7.71c-.16.31-.25.7-.25,1.16v3.28h-1.15v-6.36h1.1v1.72l-.18-.46c.21-.42.53-.74.96-.97s.94-.35,1.51-.35Z"/>
    <path class="cls-4" d="m75.04,67.77c-.62,0-1.17-.14-1.65-.41s-.87-.65-1.15-1.14c-.28-.49-.42-1.06-.42-1.7s.14-1.21.42-1.7c.28-.48.66-.86,1.15-1.13.48-.27,1.03-.41,1.65-.41.55,0,1.04.12,1.48.36.43.24.77.6,1.03,1.08s.38,1.08.38,1.8-.13,1.32-.39,1.8c-.26.48-.61.84-1.04,1.09-.43.24-.92.37-1.45.37Zm.1-1.01c.4,0,.76-.09,1.09-.28.32-.18.58-.45.77-.79.19-.34.28-.73.28-1.18s-.09-.85-.28-1.18-.44-.59-.77-.77c-.32-.18-.69-.28-1.09-.28s-.77.09-1.09.28c-.32.18-.58.44-.77.77s-.29.73-.29,1.18.1.84.29,1.18c.19.34.45.6.77.79.32.18.68.28,1.09.28Zm2.12,3.26v-4.02l.12-1.48-.07-1.48v-1.72h1.1v8.69h-1.15Z"/>
    <path class="cls-4" d="m83.28,67.77c-.54,0-1.02-.1-1.43-.3-.41-.2-.73-.51-.96-.92s-.34-.93-.34-1.55v-3.66h1.15v3.53c0,.62.15,1.09.45,1.4.3.31.72.47,1.27.47.4,0,.75-.08,1.04-.25s.52-.4.68-.72.24-.7.24-1.15v-3.29h1.15v6.36h-1.09v-1.72l.18.46c-.21.42-.52.75-.94.98s-.88.35-1.4.35Z"/>
    <path class="cls-4" d="m91.56,67.77c-.68,0-1.28-.14-1.79-.42-.52-.28-.92-.66-1.2-1.15-.28-.49-.43-1.05-.43-1.68s.14-1.19.41-1.68.66-.87,1.14-1.15c.48-.28,1.03-.41,1.64-.41s1.16.14,1.63.41c.47.27.84.65,1.11,1.15.27.49.4,1.07.4,1.72,0,.05,0,.1,0,.17s-.01.12-.02.18h-5.41v-.83h4.81l-.47.29c0-.41-.08-.77-.25-1.09-.18-.32-.42-.57-.73-.75-.31-.18-.67-.27-1.07-.27s-.76.09-1.07.27c-.31.18-.56.43-.73.76-.18.32-.26.69-.26,1.11v.19c0,.42.1.8.29,1.13.2.33.47.59.82.77s.76.28,1.21.28c.38,0,.72-.06,1.03-.19s.58-.32.81-.58l.64.74c-.29.34-.65.59-1.07.77s-.91.26-1.43.26Z"/>
  </g>
  <line class="cls-3" x1="37.98" y1="86.98" x2="37.98" y2="111.5"/>
  <line class="cls-3" x1="109.21" y1="86.54" x2="109.21" y2="111.5"/>
  <polygon class="cls-2" points="27.15 111 48.98 111 27.15 137.5 48.98 137.5 27.15 111"/>
  <polygon class="cls-2" points="98.17 111.29 120 111.29 98.17 137.79 120 137.79 98.17 111.29"/>
  <line class="cls-3" x1="38.08" y1="137.28" x2="38.08" y2="161.81"/>
  <line class="cls-3" x1="109.08" y1="137.28" x2="109.08" y2="161.81"/>
  <g>
    <path class="cls-4" d="m0,128.13v-8.4h.98l3.77,6.35h-.53l3.72-6.35h.98v8.4s-1.14,0-1.14,0v-6.59s.26,0,.26,0l-3.31,5.57h-.55l-3.34-5.57h.3v6.59H0Z"/>
    <path class="cls-4" d="m13.88,128.13l-3.7-8.4h1.3l3.4,7.75h-.74l3.42-7.75h1.2l-3.68,8.4h-1.19Z"/>
    <path class="cls-4" d="m21.89,128.23c-.59,0-1.17-.09-1.72-.28-.56-.18-1.01-.43-1.36-.74l.55-.95c.28.26.64.48,1.09.65.45.17.93.25,1.44.25.62,0,1.11-.13,1.46-.4s.52-.63.52-1.09-.17-.79-.5-1.06-.86-.4-1.58-.4h-.67v-.84l2.5-3.07.17.48h-4.6v-1.04h5.54v.82l-2.48,3.06-.62-.37h.4c1.02,0,1.78.23,2.29.68.51.46.76,1.04.76,1.74,0,.47-.12.9-.35,1.3-.23.39-.58.7-1.05.93-.47.23-1.06.34-1.78.34Z"/>
  </g>
  <g>
    <path class="cls-4" d="m79.04,128.23c-.64,0-1.25-.1-1.84-.29-.58-.2-1.04-.45-1.38-.76l.44-.94c.32.28.73.51,1.22.7.5.18,1.01.28,1.55.28.49,0,.88-.06,1.19-.17.3-.11.53-.27.67-.46.14-.2.22-.42.22-.67,0-.29-.09-.52-.28-.7-.19-.18-.43-.32-.73-.43-.3-.11-.63-.2-.99-.28-.36-.08-.72-.17-1.09-.28-.36-.11-.7-.25-1-.41-.3-.17-.54-.39-.73-.68-.18-.28-.28-.65-.28-1.1s.11-.83.34-1.19c.23-.36.58-.66,1.06-.88.48-.22,1.08-.33,1.82-.33.49,0,.97.06,1.45.19.48.13.9.31,1.25.55l-.4.96c-.36-.24-.74-.41-1.14-.52-.4-.11-.79-.16-1.16-.16-.47,0-.86.06-1.16.18-.3.12-.53.28-.67.48-.14.2-.21.42-.21.67,0,.3.09.53.28.71.19.18.43.32.73.42.3.1.63.2.99.28s.72.18,1.09.28c.36.1.7.24,1,.41s.54.39.73.67c.18.28.28.64.28,1.08s-.12.82-.35,1.18c-.23.36-.59.66-1.07.88-.48.22-1.09.33-1.83.33Z"/>
    <path class="cls-4" d="m86.46,128.13l-3.7-8.4h1.3l3.4,7.75h-.74l3.42-7.75h1.2l-3.68,8.4h-1.19Z"/>
    <path class="cls-4" d="m91.77,128.13v-.82l3.42-3.3c.3-.29.53-.54.68-.76s.25-.42.3-.61c.05-.19.08-.37.08-.55,0-.43-.15-.77-.46-1.02-.3-.25-.75-.37-1.33-.37-.45,0-.85.07-1.21.22s-.67.38-.94.69l-.82-.71c.32-.41.75-.72,1.29-.94.54-.22,1.13-.33,1.78-.33.58,0,1.09.09,1.52.28.43.19.77.46,1,.81.24.35.35.77.35,1.25,0,.27-.04.54-.11.8-.07.26-.21.54-.41.84-.2.3-.49.63-.86,1l-3.05,2.94-.29-.47h5.08v1.04h-6.04Z"/>
  </g>
  <polyline class="cls-1" points="132.46 211.21 14.26 210.84 14.26 256.84 132.76 256.84 132.76 210.84"/>
  <polyline class="cls-2" points="14.26 169.84 14.26 256.81 132.96 256.81 132.96 169.84"/>
  <line class="cls-2" x1="26.76" y1="230.84" x2="13.97" y2="231.01"/>
  <line class="cls-2" x1="20.26" y1="218.46" x2="14.25" y2="218.46"/>
  <line class="cls-2" x1="27.37" y1="205.04" x2="14.58" y2="205.22"/>
  <g>
    <path class="cls-4" d="m42.02,230.53v-8.4h3.28c.74,0,1.36.12,1.88.35.52.23.92.57,1.2,1.01.28.44.42.96.42,1.57s-.14,1.13-.42,1.57c-.28.44-.68.77-1.2,1-.52.23-1.15.35-1.88.35h-2.62l.54-.55v3.11h-1.2Zm1.2-2.99l-.54-.59h2.58c.77,0,1.35-.17,1.75-.5s.59-.8.59-1.4-.2-1.06-.59-1.39-.98-.49-1.75-.49h-2.58l.54-.6v4.97Zm4.42,2.99l-2.14-3.05h1.28l2.16,3.05h-1.31Z"/>
    <path class="cls-4" d="m53.41,230.6c-.68,0-1.28-.14-1.79-.42-.52-.28-.92-.66-1.2-1.15-.28-.49-.43-1.05-.43-1.68s.14-1.19.41-1.68c.28-.49.66-.87,1.14-1.15.48-.28,1.03-.41,1.64-.41s1.16.14,1.63.41c.47.27.84.65,1.11,1.15s.4,1.07.4,1.72c0,.05,0,.1,0,.17,0,.06-.01.12-.02.18h-5.41v-.83h4.81l-.47.29c0-.41-.08-.77-.25-1.09-.18-.32-.42-.57-.73-.75-.31-.18-.67-.27-1.07-.27s-.76.09-1.07.27c-.31.18-.56.43-.73.76-.18.32-.26.69-.26,1.11v.19c0,.42.1.8.29,1.13.2.33.47.59.82.77.35.18.76.28,1.21.28.38,0,.72-.06,1.03-.19s.58-.32.81-.58l.64.74c-.29.34-.65.59-1.07.77s-.91.26-1.43.26Z"/>
    <path class="cls-4" d="m59.74,230.6c-.53,0-1.03-.07-1.51-.22-.48-.14-.85-.32-1.12-.53l.48-.91c.27.18.61.34,1.01.47s.81.19,1.22.19c.54,0,.92-.08,1.16-.23.24-.15.35-.36.35-.64,0-.2-.07-.36-.22-.47-.14-.11-.33-.2-.57-.25-.24-.06-.5-.11-.79-.15s-.58-.1-.86-.17c-.29-.07-.55-.16-.79-.29-.24-.12-.43-.3-.58-.52-.14-.22-.22-.51-.22-.88s.11-.72.32-1.01c.22-.29.52-.51.92-.67.4-.16.87-.23,1.41-.23.42,0,.84.05,1.27.15.43.1.78.24,1.05.43l-.49.91c-.29-.19-.59-.32-.9-.4s-.62-.11-.94-.11c-.5,0-.88.08-1.13.25s-.37.37-.37.63c0,.22.07.38.22.5.15.12.34.21.58.27.24.06.5.12.79.16.29.04.58.1.86.17.29.07.55.16.79.28.24.12.43.29.58.5.15.22.22.5.22.86,0,.38-.11.72-.34,1-.22.28-.54.5-.95.65-.41.16-.9.23-1.46.23Z"/>
    <path class="cls-4" d="m66.76,230.6c-.68,0-1.28-.14-1.79-.42-.52-.28-.92-.66-1.2-1.15-.28-.49-.43-1.05-.43-1.68s.14-1.19.41-1.68c.28-.49.66-.87,1.14-1.15.48-.28,1.03-.41,1.64-.41s1.16.14,1.63.41c.47.27.84.65,1.11,1.15s.4,1.07.4,1.72c0,.05,0,.1,0,.17,0,.06-.01.12-.02.18h-5.41v-.83h4.81l-.47.29c0-.41-.08-.77-.25-1.09-.18-.32-.42-.57-.73-.75-.31-.18-.67-.27-1.07-.27s-.76.09-1.07.27c-.31.18-.56.43-.73.76-.18.32-.26.69-.26,1.11v.19c0,.42.1.8.29,1.13.2.33.47.59.82.77.35.18.76.28,1.21.28.38,0,.72-.06,1.03-.19s.58-.32.81-.58l.64.74c-.29.34-.65.59-1.07.77s-.91.26-1.43.26Z"/>
    <path class="cls-4" d="m71.27,230.53v-6.36h1.1v1.73l-.11-.43c.18-.44.47-.78.89-1.01.42-.23.93-.35,1.54-.35v1.12s-.09-.01-.14-.01h-.13c-.62,0-1.1.18-1.46.55-.36.37-.54.9-.54,1.6v3.17h-1.15Z"/>
    <path class="cls-4" d="m77.86,230.53l-2.78-6.36h1.2l2.47,5.76h-.58l2.52-5.76h1.13l-2.78,6.36h-1.18Z"/>
    <path class="cls-4" d="m85.63,230.6c-.63,0-1.2-.14-1.7-.42-.5-.28-.89-.67-1.18-1.16-.29-.49-.43-1.05-.43-1.67s.14-1.19.43-1.67c.29-.48.68-.87,1.18-1.15s1.06-.42,1.7-.42,1.2.14,1.7.41c.5.28.89.66,1.18,1.15.28.49.43,1.05.43,1.68s-.14,1.19-.43,1.68c-.28.49-.68.87-1.18,1.15-.5.28-1.07.42-1.7.42Zm0-1.01c.41,0,.77-.09,1.1-.28.32-.18.58-.45.76-.79s.28-.73.28-1.18-.09-.85-.28-1.18-.44-.59-.76-.77c-.32-.18-.69-.28-1.1-.28s-.77.09-1.09.28c-.32.18-.58.44-.77.77s-.29.73-.29,1.18.1.84.29,1.18.45.6.77.79c.32.18.68.28,1.09.28Z"/>
    <path class="cls-4" d="m90.52,230.53v-6.36h1.1v1.73l-.11-.43c.18-.44.47-.78.89-1.01.42-.23.93-.35,1.54-.35v1.12s-.09-.01-.14-.01h-.13c-.62,0-1.1.18-1.46.55-.36.37-.54.9-.54,1.6v3.17h-1.15Z"/>
    <path class="cls-4" d="m96.02,222.95c-.22,0-.41-.07-.56-.22-.15-.14-.22-.32-.22-.53s.07-.4.22-.54c.15-.14.33-.22.56-.22s.41.07.56.21c.15.14.22.31.22.52s-.07.4-.22.55c-.14.15-.33.22-.56.22Zm-.58,7.58v-6.36h1.15v6.36h-1.15Z"/>
    <path class="cls-4" d="m101.51,230.6c-.63,0-1.2-.14-1.7-.42-.5-.28-.89-.67-1.18-1.16-.29-.49-.43-1.05-.43-1.67s.14-1.19.43-1.67c.29-.48.68-.87,1.18-1.15s1.06-.42,1.7-.42,1.2.14,1.7.41c.5.28.89.66,1.18,1.15.28.49.43,1.05.43,1.68s-.14,1.19-.43,1.68c-.28.49-.68.87-1.18,1.15-.5.28-1.07.42-1.7.42Zm0-1.01c.41,0,.77-.09,1.1-.28.32-.18.58-.45.76-.79s.28-.73.28-1.18-.09-.85-.28-1.18-.44-.59-.76-.77c-.32-.18-.69-.28-1.1-.28s-.77.09-1.09.28c-.32.18-.58.44-.77.77s-.29.73-.29,1.18.1.84.29,1.18.45.6.77.79c.32.18.68.28,1.09.28Z"/>
    <path class="cls-4" d="m51.2,245c-.62,0-1.17-.14-1.65-.41-.48-.27-.87-.65-1.15-1.14-.28-.49-.42-1.06-.42-1.7s.14-1.21.42-1.7c.28-.48.66-.86,1.15-1.13.48-.27,1.03-.41,1.65-.41.54,0,1.02.12,1.45.36.43.24.78.6,1.04,1.08.26.48.39,1.08.39,1.8s-.13,1.32-.38,1.8c-.25.48-.59.84-1.03,1.09-.43.24-.92.37-1.48.37Zm.1-1.01c.4,0,.76-.09,1.09-.28.32-.18.58-.45.77-.79.19-.34.28-.73.28-1.18s-.09-.85-.28-1.18-.44-.59-.77-.77c-.32-.18-.69-.28-1.09-.28s-.77.09-1.09.28c-.32.18-.58.44-.77.77s-.29.73-.29,1.18.1.84.29,1.18c.19.34.45.6.77.79.32.18.68.28,1.09.28Zm2.17.94v-1.72l.07-1.48-.12-1.48v-4.24h1.15v8.9h-1.1Z"/>
    <path class="cls-4" d="m59.59,245c-.68,0-1.28-.14-1.79-.42s-.92-.66-1.2-1.15c-.28-.49-.43-1.05-.43-1.68s.14-1.19.41-1.68c.28-.49.66-.87,1.14-1.15.48-.28,1.03-.41,1.64-.41s1.16.14,1.63.41c.47.27.84.65,1.11,1.15.27.49.4,1.07.4,1.72,0,.05,0,.1,0,.17,0,.06-.01.12-.02.18h-5.41v-.83h4.81l-.47.29c0-.41-.08-.77-.25-1.09-.18-.32-.42-.57-.73-.75-.31-.18-.67-.27-1.07-.27s-.76.09-1.07.27-.56.43-.73.76c-.18.32-.26.69-.26,1.11v.19c0,.42.1.8.29,1.13.2.33.47.59.82.77.35.18.76.28,1.21.28.38,0,.72-.06,1.03-.19s.58-.32.81-.58l.64.74c-.29.34-.65.59-1.07.77s-.91.26-1.43.26Z"/>
    <path class="cls-4" d="m66.22,244.93l3.8-8.4h1.19l3.82,8.4h-1.26l-3.4-7.73h.48l-3.4,7.73h-1.24Zm1.62-2.1l.32-.96h4.73l.35.96h-5.4Z"/>
    <path class="cls-4" d="m78.75,244.67c-.62,0-1.17-.13-1.65-.39-.48-.26-.87-.62-1.15-1.09-.28-.46-.43-1-.43-1.61s.14-1.15.43-1.61c.28-.46.67-.82,1.15-1.07.48-.26,1.03-.38,1.65-.38.54,0,1.04.11,1.49.33.45.22.81.56,1.07,1.01s.4,1.03.4,1.73-.13,1.26-.4,1.72-.63.8-1.07,1.03c-.45.23-.94.34-1.49.34Zm.14,2.66c-.58,0-1.15-.08-1.7-.25-.55-.16-.99-.4-1.34-.7l.55-.89c.3.26.66.46,1.09.61.43.15.88.22,1.36.22.75,0,1.3-.18,1.66-.53.35-.35.53-.89.53-1.61v-1.34l.12-1.26-.06-1.27v-1.74h1.09v5.5c0,1.12-.28,1.94-.84,2.47s-1.38.79-2.46.79Zm-.01-3.67c.42,0,.8-.09,1.13-.26.33-.18.59-.42.77-.73.19-.31.28-.67.28-1.08s-.09-.77-.28-1.08c-.19-.31-.45-.55-.77-.73-.33-.17-.7-.26-1.13-.26s-.8.09-1.13.26c-.33.17-.59.41-.78.73-.19.31-.28.67-.28,1.08s.09.77.28,1.08c.19.31.45.56.78.73.33.18.71.26,1.13.26Z"/>
    <path class="cls-4" d="m87.07,245c-.54,0-1.02-.1-1.43-.3s-.73-.51-.96-.92-.34-.93-.34-1.55v-3.66h1.15v3.53c0,.62.15,1.09.45,1.4.3.31.72.47,1.27.47.4,0,.75-.08,1.04-.25s.52-.4.68-.72c.16-.32.24-.7.24-1.15v-3.29h1.15v6.36h-1.09v-1.72l.18.46c-.21.42-.52.75-.94.98-.42.23-.88.35-1.4.35Z"/>
    <path class="cls-4" d="m94.38,245c-.47,0-.89-.08-1.24-.24s-.63-.38-.82-.67c-.19-.28-.29-.61-.29-.97s.08-.66.25-.94c.16-.28.43-.5.8-.67s.87-.25,1.51-.25h2.02v.83h-1.97c-.58,0-.96.1-1.16.29-.2.19-.3.42-.3.7,0,.31.12.56.37.75s.59.28,1.03.28.81-.1,1.13-.29c.32-.19.56-.47.7-.84l.23.79c-.15.38-.42.67-.8.89-.38.22-.87.33-1.45.33Zm2.09-.07v-1.34l-.06-.25v-2.29c0-.49-.14-.87-.43-1.13-.28-.27-.71-.4-1.28-.4-.38,0-.74.06-1.1.19-.36.12-.66.29-.91.5l-.48-.86c.33-.26.72-.47,1.18-.61.46-.14.94-.21,1.45-.21.87,0,1.54.21,2.02.64.47.42.71,1.07.71,1.94v3.84h-1.09Z"/>
  </g>
  <line class="cls-3" x1="133.13" y1="235.59" x2="190.65" y2="235.59"/>
  <line class="cls-3" x1="132.84" y1="73.59" x2="198.65" y2="73.59"/>
  <g>
    <polygon class="cls-2" points="198.36 84.5 198.36 62.67 224.86 84.5 224.86 62.67 198.36 84.5"/>
    <line class="cls-2" x1="211.61" y1="73.59" x2="211.61" y2="57.67"/>
    <path class="cls-2" d="m198.36,57.67h26.5,0c-6.01-9.98-20.49-9.98-26.5,0h0Z"/>
  </g>
  <line class="cls-3" x1="225.27" y1="73.9" x2="251.65" y2="73.9"/>
  <g>
    <path class="cls-4" d="m176.97,97.2c-.64,0-1.25-.1-1.84-.29-.58-.2-1.04-.45-1.38-.76l.44-.94c.32.28.73.51,1.22.7.5.18,1.01.28,1.55.28.49,0,.88-.06,1.19-.17.3-.11.53-.27.67-.46.14-.2.22-.42.22-.67,0-.29-.09-.52-.28-.7-.19-.18-.43-.32-.73-.43-.3-.11-.63-.2-.99-.28s-.72-.17-1.09-.28c-.36-.11-.7-.25-1-.41s-.54-.39-.73-.68c-.18-.28-.28-.65-.28-1.1s.11-.83.34-1.19c.23-.36.58-.66,1.06-.88.48-.22,1.08-.33,1.82-.33.49,0,.97.06,1.45.19.48.13.9.31,1.25.55l-.4.96c-.36-.24-.74-.41-1.14-.52s-.79-.16-1.16-.16c-.47,0-.86.06-1.16.18s-.53.28-.67.48-.21.42-.21.67c0,.3.09.53.28.71.19.18.43.32.73.42.3.1.63.2.99.28.36.08.72.18,1.09.28.36.1.7.24,1,.41s.54.39.73.67c.18.28.28.64.28,1.08s-.12.82-.35,1.18c-.23.36-.59.66-1.07.88s-1.09.33-1.83.33Z"/>
    <path class="cls-4" d="m184.64,97.18c-.68,0-1.28-.14-1.79-.42-.52-.28-.92-.66-1.2-1.15-.28-.49-.43-1.05-.43-1.68s.14-1.19.41-1.68c.28-.49.66-.87,1.14-1.15.48-.28,1.03-.41,1.64-.41s1.16.14,1.63.41c.47.27.84.65,1.11,1.15.27.49.4,1.07.4,1.72,0,.05,0,.1,0,.17s-.01.12-.02.18h-5.41v-.83h4.81l-.47.29c0-.41-.08-.77-.25-1.09-.18-.32-.42-.57-.73-.75-.31-.18-.67-.27-1.07-.27s-.76.09-1.07.27c-.31.18-.56.43-.73.76-.18.32-.26.69-.26,1.11v.19c0,.42.1.8.29,1.13s.47.59.82.77c.35.18.76.28,1.21.28.38,0,.72-.06,1.03-.19.31-.13.58-.32.81-.58l.64.74c-.29.34-.65.59-1.07.77s-.91.26-1.43.26Z"/>
    <path class="cls-4" d="m189.15,97.11v-6.36h1.1v1.73l-.11-.43c.18-.44.47-.78.89-1.01s.93-.35,1.54-.35v1.12s-.09-.01-.14-.01h-.13c-.62,0-1.1.18-1.46.55-.36.37-.54.9-.54,1.6v3.17h-1.15Z"/>
    <path class="cls-4" d="m195.74,97.11l-2.78-6.36h1.2l2.47,5.76h-.58l2.52-5.76h1.13l-2.78,6.36h-1.18Z"/>
    <path class="cls-4" d="m203.5,97.18c-.63,0-1.2-.14-1.7-.42-.5-.28-.89-.67-1.18-1.16-.29-.49-.43-1.05-.43-1.67s.14-1.19.43-1.67.68-.87,1.18-1.15c.5-.28,1.06-.42,1.7-.42s1.2.14,1.7.41c.5.28.89.66,1.18,1.15s.43,1.05.43,1.68-.14,1.19-.43,1.68c-.28.49-.68.87-1.18,1.15-.5.28-1.07.42-1.7.42Zm0-1.01c.41,0,.77-.09,1.1-.28.32-.18.58-.45.76-.79.18-.34.28-.73.28-1.18s-.09-.85-.28-1.18c-.18-.33-.44-.59-.76-.77-.32-.18-.69-.28-1.1-.28s-.77.09-1.09.28c-.32.18-.58.44-.77.77-.19.33-.29.73-.29,1.18s.1.84.29,1.18c.19.34.45.6.77.79s.68.28,1.09.28Z"/>
    <path class="cls-4" d="m210.07,97.11l-2.78-6.36h1.2l2.47,5.76h-.58l2.52-5.76h1.13l-2.78,6.36h-1.18Z"/>
    <path class="cls-4" d="m216.97,97.18c-.47,0-.89-.08-1.24-.24-.36-.16-.63-.38-.82-.67-.19-.28-.29-.61-.29-.97s.08-.66.25-.94c.16-.28.43-.5.8-.67s.87-.25,1.51-.25h2.02v.83h-1.97c-.58,0-.96.1-1.16.29-.2.19-.3.42-.3.7,0,.31.12.56.37.75.25.19.59.28,1.03.28s.81-.1,1.13-.29c.32-.19.56-.47.7-.84l.23.79c-.15.38-.42.67-.8.89-.38.22-.87.33-1.45.33Zm2.09-.07v-1.34l-.06-.25v-2.29c0-.49-.14-.87-.43-1.13s-.71-.4-1.28-.4c-.38,0-.74.06-1.1.19s-.66.29-.91.5l-.48-.86c.33-.26.72-.47,1.18-.61s.94-.21,1.45-.21c.87,0,1.54.21,2.02.64.47.42.71,1.07.71,1.94v3.84h-1.09Zm-2.45-7.28l1.63-1.56h1.46l-2.02,1.56h-1.08Z"/>
    <path class="cls-4" d="m222.28,97.11v-8.9h1.15v8.9h-1.15Z"/>
    <path class="cls-4" d="m227.3,97.11l-2.78-6.36h1.2l2.47,5.76h-.58l2.52-5.76h1.13l-2.78,6.36h-1.18Z"/>
    <path class="cls-4" d="m235.01,97.18c-.54,0-1.02-.1-1.43-.3-.41-.2-.73-.51-.96-.92-.23-.41-.34-.93-.34-1.55v-3.66h1.15v3.53c0,.62.15,1.09.45,1.4s.72.47,1.27.47c.4,0,.75-.08,1.04-.25s.52-.4.68-.72.24-.7.24-1.15v-3.29h1.15v6.36h-1.09v-1.72l.18.46c-.21.42-.52.75-.94.98s-.88.35-1.4.35Z"/>
    <path class="cls-4" d="m240.46,97.11v-8.9h1.15v8.9h-1.15Z"/>
    <path class="cls-4" d="m245.67,97.18c-.47,0-.89-.08-1.24-.24-.36-.16-.63-.38-.82-.67-.19-.28-.29-.61-.29-.97s.08-.66.25-.94c.16-.28.43-.5.8-.67s.87-.25,1.51-.25h2.02v.83h-1.97c-.58,0-.96.1-1.16.29-.2.19-.3.42-.3.7,0,.31.12.56.37.75.25.19.59.28,1.03.28s.81-.1,1.13-.29c.32-.19.56-.47.7-.84l.23.79c-.15.38-.42.67-.8.89-.38.22-.87.33-1.45.33Zm2.09-.07v-1.34l-.06-.25v-2.29c0-.49-.14-.87-.43-1.13s-.71-.4-1.28-.4c-.38,0-.74.06-1.1.19s-.66.29-.91.5l-.48-.86c.33-.26.72-.47,1.18-.61s.94-.21,1.45-.21c.87,0,1.54.21,2.02.64.47.42.71,1.07.71,1.94v3.84h-1.09Z"/>
  </g>
  <polygon class="cls-4" points="149.9 73.57 161.7 80.38 161.7 66.75 149.9 73.57"/>
  <polygon class="cls-4" points="193.57 235.5 181.77 228.68 181.77 242.32 193.57 235.5"/>
</svg>